<svg xmlns="http://www.w3.org/2000/svg" width="32" height="32" viewBox="0 0 32 32">
    <g fill="#CBCBCB" fill-rule="evenodd">
        <path fill-rule="nonzero" d="M29 8.809v13.5l-6.75-6.75L29 8.809zm-27 6.75c0-7.425 6.075-13.5 13.5-13.5 4.556 0 8.606 2.278 11.053 5.821l-1.181 1.182A11.783 11.783 0 0 0 15.5 3.746c-6.497 0-11.813 5.316-11.813 11.813 0 6.496 5.316 11.812 11.813 11.812 4.134 0 7.762-2.11 9.872-5.316l1.181 1.182c-2.447 3.543-6.497 5.822-11.053 5.822-7.425 0-13.5-6.075-13.5-13.5z"/>
        <text font-family="RobotoCondensed-Bold, Roboto Condensed" font-size="16" font-style="condensed" font-weight="bold" transform="translate(2 2.059)">
            <tspan x="9.453" y="18">$</tspan>
        </text>
    </g>
</svg>
