<svg xmlns="http://www.w3.org/2000/svg" width="32" height="32" viewBox="0 0 32 32">
    <path fill="#CBCBCB" fill-rule="nonzero" d="M28.434.687a1.117 1.117 0 0 0-.349.065c-6.126 2.179-10.32 8.012-10.642 14.674l-1.492-1.567a1.142 1.142 0 0 0-1.672 0 1.286 1.286 0 0 0 0 1.758l3.587 3.768c.222.234.524.364.837.364.313 0 .613-.13.836-.364l3.585-3.768a1.286 1.286 0 0 0 0-1.758 1.142 1.142 0 0 0-1.672 0l-1.647 1.73c.258-5.663 3.825-10.627 9.038-12.482.619-.22.952-.927.742-1.576a1.19 1.19 0 0 0-1.15-.844zm-26.2 3.9c-.685-.013-1.206.503-1.233 1.187-.03.687.476 1.267 1.13 1.297l3.673.169.882 3.385c.006.072.019.144.038.215l2.572 9.8.454 1.738a1.234 1.234 0 0 0 .76.846c.028.01.057.019.086.027l.006.002c.023.006.047.01.07.015l.026.006c.028.005.056.008.085.011l.01.001c.033.003.065.005.098.005h15.898c.533 0 1-.374 1.14-.913l3.03-11.538a1.3 1.3 0 0 0-.2-1.083 1.167 1.167 0 0 0-.942-.49h-6.191c-.655 0-1.183.555-1.183 1.242 0 .687.528 1.243 1.183 1.243h4.639l-2.378 9.053H11.794l-2.36-9.053h6.702c.654 0 1.183-.556 1.183-1.243s-.53-1.243-1.183-1.243h-7.35l-.928-3.56c-.136-.52-.575-.888-1.088-.911l-4.535-.208zm11.774 19.785a3.004 3.004 0 0 0-3.002 3 3.003 3.003 0 0 0 6.004 0c0-1.654-1.345-3-3.002-3zm9.15 2.179a1.001 1.001 0 1 1-1 1c0-.551.45-1 1-1zm-9.15 1.821a1 1 0 1 1 0-2 1 1 0 0 1 0 2zm8.994-4a3.004 3.004 0 0 0-3.002 3 3.003 3.003 0 0 0 6.004 0c0-1.654-1.345-3-3.002-3z"/>
</svg>
