<svg xmlns="http://www.w3.org/2000/svg" width="31" height="20" viewBox="0 0 31 20">
    <g fill="none" fill-rule="nonzero">
        <path fill="#FF5A60" d="M30.939 10.332a.602.602 0 0 1-.356.309l-3.9 1.328a.621.621 0 0 1-.785-.383l-3.06-8.853-.156.056a3.19 3.19 0 0 1-2.43-.136l-.38-.185a1.927 1.927 0 0 0-1.46-.087l-7.116 2.434c.075.272.218.587.468.76.286.198.729.198 1.308 0l3.191-1.08a.622.622 0 0 1 .798.425c.006.019.455 1.65 1.838 2.385.872.463 1.963.476 3.24.043a.619.619 0 0 1 .786.383.61.61 0 0 1-.387.779c-.748.253-1.458.383-2.119.383-.766 0-1.47-.173-2.112-.513-1.246-.667-1.907-1.816-2.212-2.527l-2.618.89c-.972.327-1.782.278-2.411-.155-.991-.68-1.06-2.007-1.066-2.156a.626.626 0 0 1 .418-.599l7.602-2.6a3.185 3.185 0 0 1 2.406.147l.38.186c.461.222.997.253 1.477.086l.63-.222a.415.415 0 0 1 .118-.056l3.882-1.34a.619.619 0 0 1 .785.383l3.272 9.452a.63.63 0 0 1-.031.463zm-4.213-8.945l-2.73.926 2.867 8.297 2.73-.927-2.867-8.296z"/>
        <path fill="#2C2F33" d="M24.45 15.968a1.84 1.84 0 0 1-1.591 1.007 1.797 1.797 0 0 1-1.242 1.702 1.818 1.818 0 0 1-1.4-.087l-.33-.162a1.797 1.797 0 0 1-1.23 1.472 1.818 1.818 0 0 1-1.4-.087l-7.205-3.46a18.572 18.572 0 0 1-4.411-2.95l-1.61-1.447L.35 10.19a.606.606 0 0 1-.285-.82L4.551.345a.61.61 0 0 1 .361-.31.619.619 0 0 1 .482.03l3.764 1.808c.31.15.437.516.285.82l-4.296 8.61 1.33 1.2a17.525 17.525 0 0 0 4.113 2.751l7.206 3.46a.593.593 0 0 0 .785-.267.56.56 0 0 0 .026-.441.59.59 0 0 0-.298-.33l-4.03-1.931a.606.606 0 0 1-.286-.82.63.63 0 0 1 .837-.28l4.03 1.932 1.901.913a.593.593 0 0 0 .786-.267.56.56 0 0 0 .025-.44.59.59 0 0 0-.297-.33l-5.78-2.77a.606.606 0 0 1-.285-.82.63.63 0 0 1 .836-.28l6.496 3.112a.6.6 0 0 0 .786-.26.56.56 0 0 0 .025-.442.59.59 0 0 0-.298-.33l-2.56-1.229-3.327-1.597a.606.606 0 0 1-.285-.82.63.63 0 0 1 .836-.279l5.178 2.485a.6.6 0 0 0 .786-.261.578.578 0 0 0-.266-.77l-2.75-1.317a.606.606 0 0 1-.286-.82.63.63 0 0 1 .837-.28l2.75 1.317a1.788 1.788 0 0 1 .323 3.044c.38.503.469 1.217.158 1.832zM8.042 2.706L5.406 1.439l-3.954 7.92 2.636 1.267 3.955-7.92z"/>
    </g>
</svg>
