<svg xmlns="http://www.w3.org/2000/svg" width="36" height="29" viewBox="0 0 36 29">
    <g fill="none" fill-rule="nonzero" stroke="#CBCBCB" stroke-width="2">
        <path d="M27.406 16.417l6.587 4.061c1.343.788 1.343 2.383.018 3.16l-6.649 4.1-.145.073a4.656 4.656 0 0 1-.39.145l-.144.044h-2.216v-3.007h-21.4C1.888 24.993 1 24.022 1 23v-2c0-1.022.882-2.026 2.067-2.026h21.4V17.24 16h1c.295 0 .545.01.836.045.45.056.804.152 1.103.372zM8.594 1.417L2.007 5.478C.664 6.266.664 7.861 1.99 8.638l6.649 4.1.145.073c.156.064.283.112.39.145l.144.044h2.216V9.993h21.4C34.112 9.993 35 9.022 35 8V6c0-1.022-.882-2.026-2.067-2.026h-21.4V2.24 1h-1c-.295 0-.545.01-.836.045-.45.056-.804.152-1.103.372z"/>
    </g>
</svg>
