<svg xmlns="http://www.w3.org/2000/svg" xmlns:xlink="http://www.w3.org/1999/xlink" width="90" height="37" viewBox="0 0 90 37">
    <defs>
        <path id="a" d="M0 .062v11.222h5.091V.062H0z"/>
        <path id="c" d="M0 44.421h89.483V0H0z"/>
    </defs>
    <g fill="none" fill-rule="evenodd">
        <path fill="#F05754" d="M49.974 19.13l4.88-5.116V6.737h-4.88v12.392zm-10.155-.004l4.802-5.048V6.737H39.819v12.389zm-10.204-.12l4.815-4.932V6.66H29.615v12.344zM33.978 1.24L30.31 5.483h4.423l3.235-4.242h-3.99zm1.63 6.676V20.01h3.033V2.318c-.981 1.342-1.956 2.704-3.034 3.954v1.645zm8.545-6.658l-3.716 4.3h4.486l3.28-4.3h-4.05zm1.645 6.724V20.01h3V2.444c-.97 1.327-1.936 2.67-3 3.905v1.634zm8.59-6.724l-3.718 4.3h4.487l3.28-4.3h-4.05zm4.643 14.596V2.444c-.97 1.327-1.935 2.67-3 3.905V19.097l3-3.242zm1.177-.538c0 .245.041.527 0 .768-.092.548-.741 1.033-1.101 1.42l-3.248 3.51c-.352.381-1.005.08-1.005-.416v-4.881l-5.052 5.298a.521.521 0 0 1-.463.172h-4.13a.597.597 0 0 1-.588-.589v-4.814l-4.974 5.23a.522.522 0 0 1-.466.173H35.02a.598.598 0 0 1-.589-.589v-4.841l-4.988 5.11c-.358.366-1.005.088-1.005-.417V6.072a.58.58 0 0 1 .136-.368c.01-.014.02-.028.032-.042l.005-.007c1.516-1.753 2.963-3.609 4.566-5.283.557-.58 1.836-.309 2.568-.309h3.408a.55.55 0 0 1 .242.062c.23.059.425.24.425.546V4.46c1.152-1.369 2.295-2.754 3.519-4.05.543-.578 1.728-.327 2.454-.327h3.594a.56.56 0 0 1 .297.092.518.518 0 0 1 .25.28c.054.11.072.23.041.348V4.551C51.153 3.152 52.32 1.734 53.571.41 54.115-.17 55.3.082 56.026.082h3.594c.104 0 .207.035.297.092a.522.522 0 0 1 .251.28c.052.11.071.23.04.348V15.317z"/>
        <g transform="translate(0 24.734)">
            <mask id="b" fill="#fff">
                <use xlink:href="#a"/>
            </mask>
            <path fill="#F05754" d="M5.091.062v11.222h-2.93v-8.82H0V.061z" mask="url(#b)"/>
        </g>
        <path fill="#F05754" d="M9.024 30.398c0 2.562.464 3.634 1.6 3.634 1.12 0 1.586-1.072 1.586-3.634 0-2.577-.465-3.634-1.586-3.634-1.136 0-1.6 1.057-1.6 3.634m5.987 0c0 3.667-1.569 5.7-4.387 5.7-2.849 0-4.402-2.033-4.402-5.7 0-3.666 1.553-5.683 4.402-5.683 2.818 0 4.387 2.017 4.387 5.683M18.48 30.398c0 2.562.464 3.634 1.6 3.634 1.121 0 1.586-1.072 1.586-3.634 0-2.577-.465-3.634-1.585-3.634-1.137 0-1.601 1.057-1.601 3.634m5.987 0c0 3.667-1.569 5.7-4.386 5.7-2.85 0-4.403-2.033-4.403-5.7 0-3.666 1.553-5.683 4.403-5.683 2.817 0 4.386 2.017 4.386 5.683"/>
        <path fill="#414042" d="M29.79 24.795v8.725h4.698v2.497H26.86V24.795zM40.521 33.088v-.752h-1.697c-.8 0-1.2.287-1.2.896 0 .592.432.976 1.169.976.848 0 1.552-.464 1.728-1.12m2.801-2.706v5.635h-2.801v-.976c-.56.72-1.44 1.104-2.61 1.104-1.856 0-2.96-1.12-2.96-2.705 0-1.65 1.168-2.593 3.313-2.625h2.257v-.096c0-.817-.56-1.297-1.649-1.297-.72 0-1.665.24-2.594.688l-.784-1.92c1.36-.61 2.61-.946 4.035-.946 2.385 0 3.778 1.154 3.793 3.138M50.563 31.727c0-1.297-.752-2.161-1.857-2.161-1.12 0-1.873.88-1.873 2.161 0 1.28.753 2.16 1.873 2.16 1.105 0 1.857-.88 1.857-2.16zm2.85-7.588v11.879h-2.85v-1.121c-.592.8-1.473 1.232-2.561 1.232-2.434 0-4.034-1.793-4.034-4.482 0-2.64 1.585-4.387 3.97-4.387 1.12 0 2.017.449 2.625 1.234v-4.355h2.85zM59.99 27.245v2.61c-1.585-.162-2.642.543-2.785 1.744v4.419h-2.85v-8.661h2.85v1.44c.592-.992 1.568-1.552 2.785-1.552"/>
        <mask id="d" fill="#fff">
            <use xlink:href="#c"/>
        </mask>
        <path fill="#414042" d="M60.709 36.017h2.833v-8.66H60.71v8.66zm2.93-11.125c0 .896-.626 1.52-1.506 1.52s-1.505-.624-1.505-1.52c0-.897.625-1.522 1.505-1.522.88 0 1.505.625 1.505 1.522zM64.846 36.017h2.85V24.138h-2.85zM68.96 36.017h2.85V24.138h-2.85zM75.332 31.727c0 1.28.751 2.145 1.857 2.145 1.12 0 1.872-.864 1.872-2.145 0-1.297-.752-2.161-1.872-2.161-1.106 0-1.857.864-1.857 2.161m6.595-.048c0 2.673-1.89 4.434-4.738 4.434-2.85 0-4.723-1.761-4.723-4.434 0-2.657 1.873-4.419 4.723-4.419 2.849 0 4.738 1.762 4.738 4.42M85.77 29.214c-.481 0-.817.176-.817.544 0 1.136 4.546.592 4.53 3.602 0 1.777-1.552 2.785-3.666 2.785-1.456 0-2.85-.416-3.906-1.232l.897-1.842c.992.69 2.112 1.073 3.073 1.073.529 0 .913-.175.913-.528 0-1.185-4.467-.592-4.467-3.586 0-1.809 1.521-2.8 3.554-2.8 1.249 0 2.514.35 3.602 1.007l-.96 1.857c-1.073-.56-2.05-.88-2.754-.88" mask="url(#d)"/>
    </g>
</svg>
