<svg xmlns="http://www.w3.org/2000/svg" width="32" height="32" viewBox="0 0 32 32">
    <path fill="#CBCBCB" fill-rule="nonzero" d="M26.345 1.372c-.295 0-.59.11-.816.327a1.085 1.085 0 0 0 0 1.575l1.455 1.403c-8.033.39-14.445 6.898-14.445 14.839 0 .616.516 1.113 1.154 1.113.638 0 1.154-.497 1.154-1.113 0-6.764 5.46-12.303 12.291-12.616L25.53 8.45a1.085 1.085 0 0 0 0 1.576c.226.217.52.326.816.326.296 0 .591-.108.816-.326l3.5-3.376a1.09 1.09 0 0 0 0-1.575l-3.5-3.376a1.172 1.172 0 0 0-.816-.327zM2.205 7.063C1.549 7.05 1.028 7.513 1 8.127c-.029.615.464 1.135 1.102 1.161l3.584.152.86 3.027c.006.067.018.133.037.199l2.67 9.34.283.998c.079.275.258.497.488.64l.003.002.055.03.027.016.038.017.047.022.023.009.064.023.013.004c.026.008.051.016.077.022h.004c.029.007.057.013.087.018l.02.002a1.08 1.08 0 0 0 .168.013h15.51c.52 0 .976-.335 1.113-.817l2.956-10.34a1.088 1.088 0 0 0-.194-.97 1.17 1.17 0 0 0-.92-.44h-8.883c-.638 0-1.154.499-1.154 1.114 0 .616.516 1.114 1.154 1.114h7.37l-2.32 8.112H11.531l-2.303-8.112h2.623c.638 0 1.154-.498 1.154-1.114 0-.615-.516-1.113-1.154-1.113H8.597l-.905-3.19a1.147 1.147 0 0 0-1.065-.817l-4.422-.186zm11.803 17.31a3.004 3.004 0 0 0-3.002 3 3.003 3.003 0 0 0 6.004 0c0-1.655-1.345-3-3.002-3zm9.15 2.178a1.001 1.001 0 1 1-1 1c0-.551.45-1 1-1zm-9.15 1.821a1 1 0 1 1 0-2 1 1 0 0 1 0 2zm8.994-4a3.004 3.004 0 0 0-3.002 3 3.003 3.003 0 0 0 6.004 0c0-1.654-1.345-3-3.002-3z"/>
</svg>
