<svg xmlns="http://www.w3.org/2000/svg" width="40" height="40" viewBox="0 0 40 40">
    <g fill="none" fill-rule="evenodd">
        <path fill="#000" fill-rule="nonzero" d="M33 26l-6.405 1.754c0-.046.405-.708.405-.754 0-1.015.033-1-1-1h-6l-4-2h-5v-1H5v10h5.633c.517 0 .367-.492.367-1h2l7 3h3l12-6-.002-1.338L35 26h-2zm1 2l-11 6h-3l-7-3h-2v-6h5l4 2h5c.475 0 .78 0 .97.013.032.196.03.706.03.987 0 1 1.451 1-1 1h-6c-.652 0-.985.333-1 1h6c.22 0 .873-.019 1 0 .071-.022.95.041 1 0l7-3h1c-.048.227.183.732 0 1z"/>
        <path fill="#FF5A60" fill-rule="nonzero" d="M18 22l3 1h6v1h4v-4c0-4.61-2-7.944-6-10h-4.895c-.237 0-.726-.093-1.105 0-2.037.56-6 2.757-6 10.28V21h1l4 1z"/>
        <path fill="#FF5A60" fill-rule="nonzero" d="M20.016 9c.178.3-.46 1.047-.016.997h3.79c.4 0 .166-.897.21-.997l1.965-3c.089-.25 0-1 0-.96L23.79 4.037c-.133-.05-.657-.05-.79 0l-.986.901L21 4.038c-.133-.05-.85-.05-.984 0L18 5.039c-.076.035.014-.159 0-.039-.026.228-.087.836 0 1l2.016 3z"/>
        <path fill="#FFF" d="M21.8 16.95C21.5 16.8 20 16.1 20 15c0-.95.65-1.7 1.5-1.95V12h1v1.05c.85.2 1.5 1 1.5 1.95h-1c0-.55-.45-1-1-1s-1 .45-1 1c0 .3.7.8 1.2 1.05.3.15 1.8.85 1.8 1.95 0 .95-.65 1.7-1.5 1.95V21h-1v-1.05c-.85-.2-1.5-1-1.5-1.95h1c0 .55.45 1 1 1s1-.45 1-1c0-.3-.7-.8-1.2-1.05z"/>
    </g>
</svg>
