<svg xmlns="http://www.w3.org/2000/svg" width="35" height="39" viewBox="0 0 35 39">
    <g fill="none" fill-rule="evenodd">
        <path fill="#000" fill-rule="nonzero" d="M34 10h-6v29h6V11v-1zm-1 28h-4V11h4v27zM26 17h-6v22h6V17.759 17zm-1 21h-4V18h4v20zM18 19h-6v20h6V19.69 19zm-1 19h-4V20h4v18zM10 23.158H4V39h6V23.704v-.546zM9 38H5V24h4v14z"/>
        <path fill="#FF5A60" fill-rule="nonzero" d="M5.642 16c.16 0 .32-.066.449-.198l7.54-7.775 5.39 5.558a.607.607 0 0 0 .898 0l7.059-7.278.994 1.19c.129.133.29.233.482.233h.128a.592.592 0 0 0 .481-.43l1.476-4.4a.71.71 0 0 0-.128-.662c-.16-.165-.385-.265-.61-.232l-4.395.927a.592.592 0 0 0-.482.43.71.71 0 0 0 .129.661l1.123 1.324-6.674 6.88-5.422-5.59a.607.607 0 0 0-.898 0l-7.99 8.237a.653.653 0 0 0 0 .927.624.624 0 0 0 .45.198zM28.999 3.561l-.738 2.217-1.508-1.787L29 3.561z"/>
        <path fill="#FF5A60" fill-opacity=".5" d="M5 24h4v14H5zM21 18h4v20h-4z"/>
        <path fill="#FF5A60" d="M13 20h4v18h-4zM29 11h4v27h-4z"/>
    </g>
</svg>
