<svg xmlns="http://www.w3.org/2000/svg" width="32" height="40" viewBox="0 0 32 40">
    <g fill="none" fill-rule="evenodd">
        <path fill="#000" d="M22 14h5v1h-5zM27 14h1v25h-1z"/>
        <path fill="#FF423E" fill-rule="nonzero" d="M15 20h4v19h-4z" opacity=".6"/>
        <path fill="#FF423E" fill-rule="nonzero" d="M22 15h5.167v24H22z"/>
        <path fill="#000" d="M15 19h4v1h-4zM19 19h1v20h-1zM14 19h1v20h-1zM7 22h5v1H7z"/>
        <path fill="#FF423E" fill-rule="nonzero" d="M7 23h4v16H7z" opacity=".3"/>
        <path fill="#000" d="M11 22h1v17h-1zM6 22h1v17H6zM22 14h1v25h-1zM2 39h30v1H2z"/>
        <g fill="#FF423E" fill-rule="nonzero">
            <path d="M15.527 6.263h.408c.272 0 .68-.136.816-.546.136-.273.272-.546.272-.82.136-.41 0-.956-.544-1.092-.544-.137-.952 0-1.088.546-.136.273-.272.547-.272.82-.272.273 0 .82.408 1.092zM2.063 19.512c-.272.137-.544.41-.816.547-.408.273-.544.819-.272 1.229.136.273.408.41.816.41.136 0 .272 0 .408-.137.272-.137.544-.41.952-.546.408-.274.544-.82.272-1.23-.408-.41-.952-.546-1.36-.273zM14.303 8.449c-.408-.273-.952-.137-1.224.273-.136.273-.408.546-.544.82-.272.41-.136.956.272 1.229.136.136.272.136.544.136a.747.747 0 0 0 .68-.41c.272-.273.408-.546.544-.956.272-.273.136-.819-.272-1.092zM10.087 12.82c-.272.273-.408.546-.68.819-.272.41-.272.956 0 1.23.136.136.408.272.544.272.272 0 .408-.136.68-.273.272-.273.544-.546.68-.82.272-.409.272-.955 0-1.228-.408-.41-.952-.274-1.224 0zM6.143 18.693c.136 0 .408 0 .544-.137.272-.273.544-.41.816-.683.408-.273.408-.82.136-1.23-.272-.409-.816-.409-1.224-.136-.272.273-.544.41-.816.683-.408.273-.408.82-.136 1.23.136.136.408.273.68.273z"/>
            <path d="M12.807 3.122L17.43 1.21l1.904 4.644c.136.273.272.273.544.273h.136c.272 0 .408-.273.272-.547L18.247.39c0-.136-.136-.273-.272-.273h-.408l-5.168 2.049c-.272.136-.408.41-.272.683.136.273.408.41.68.273z"/>
        </g>
    </g>
</svg>
