<svg xmlns="http://www.w3.org/2000/svg" width="32" height="32" viewBox="0 0 32 32">
    <g fill="#CBCBCB" fill-rule="nonzero">
        <path d="M30.167.768H1.833A.832.832 0 0 0 1 1.601V9.81c0 .46.54.935 1 .935h6v4l-2 1-2 4v3l2.268 7.397a.837.837 0 0 0 .791.58h9.886a.842.842 0 0 0 .484-.154c.29-.207 2.628-2.103.65-8.138h3.106a2.503 2.503 0 0 0 2.498-2.498v-9.29h6.478c.461 0 .833-.372.833-.832V1.6a.823.823 0 0 0-.827-.833zm-13.57 28.288H7.672l-2.397-7.477a.84.84 0 0 1 .07-.673l2.239-3.85v2.876c0 1.252.927 2.285 2.126 2.468v1.359a.832.832 0 1 0 1.665 0v-3.863a1.174 1.174 0 1 1 2.35 0v3.863a.832.832 0 1 0 1.666 0v-1.323h.915c1.56 4.334.656 6.124.29 6.62zm5.427-9.124c0 .46.277.832-.833.832H15v-1.02c0-1.57-.872-2.7-2.443-2.7-1.57 0-2.557 1.276-2.557 2.846v.874l-1-1.02v-13h13.024v13.188zm7.31-10.955H23.69V6.538h2.486a.832.832 0 1 0 0-1.665H5.825a.832.832 0 1 0 0 1.665h1.76v2.44h-4.92V2.433h26.67v6.543z"/>
        <path d="M11.833 13.01h.295v.024a2.321 2.321 0 0 0 4.642 0v-.968c0-.36.295-.65.65-.65.36 0 .649.295.649.65v2.45a.832.832 0 1 0 1.665 0v-1.505h.296a.832.832 0 1 0 0-1.666h-.414a2.32 2.32 0 0 0-4.523.727v.956c0 .36-.296.65-.65.65a.652.652 0 0 1-.65-.65v-2.45a.832.832 0 1 0-1.665 0v.761h-.295a.832.832 0 0 0-.833.833c0 .466.372.839.833.839z"/>
    </g>
</svg>
